<?xml version="1.0" standalone="no"?><!DOCTYPE svg PUBLIC "-//W3C//DTD SVG 1.1//EN" "http://www.w3.org/Graphics/SVG/1.1/DTD/svg11.dtd"><svg t="1754841435317" class="icon" viewBox="0 0 1024 1024" version="1.1" xmlns="http://www.w3.org/2000/svg" p-id="2630" xmlns:xlink="http://www.w3.org/1999/xlink" width="200" height="200"><path d="M884.363636 342.109091c0 314.181818-207.127273 539.927273-509.672727 549.236364-128 9.309091-216.436364-27.927273-295.563636-88.436364 88.436364 9.309091 207.127273-18.618182 262.981818-79.127273-88.436364 0-137.309091-48.872727-165.236364-116.363636H256c-79.127273-30.254545-137.309091-88.436364-137.309091-186.181818 18.618182 9.309091 39.563636 18.618182 79.127273 18.618181-69.818182-39.563636-107.054545-165.236364-58.181818-244.363636 88.436364 97.745455 195.490909 186.181818 372.363636 195.490909-48.872727-195.490909 207.127273-295.563636 314.181818-165.236363 48.872727-9.309091 79.127273-27.927273 116.363637-48.872728-9.309091 48.872727-39.563636 79.127273-79.127273 97.745455 39.563636 0 69.818182-9.309091 97.745454-27.927273-9.309091 34.909091-48.872727 74.472727-76.8 95.418182z m0 0" p-id="2631" fill="#F8761B"></path></svg>