<?xml version="1.0" standalone="no"?><!DOCTYPE svg PUBLIC "-//W3C//DTD SVG 1.1//EN" "http://www.w3.org/Graphics/SVG/1.1/DTD/svg11.dtd"><svg t="1754840284041" class="icon" viewBox="0 0 1024 1024" version="1.1" xmlns="http://www.w3.org/2000/svg" p-id="6530" xmlns:xlink="http://www.w3.org/1999/xlink" width="200" height="200"><path d="M1013.792 307.2s-10.016-70.592-40.8-101.6C933.984 164.8 890.4 164.608 870.4 162.208c-143.2-10.4-358.208-10.4-358.208-10.4h-0.384s-215.008 0-358.208 10.4c-20 2.4-63.584 2.592-102.592 43.392C20.192 236.608 10.4 307.2 10.4 307.2s-10.208 82.816-10.208 165.792v77.6c0 82.784 10.208 165.792 10.208 165.792s10.016 70.592 40.608 101.6c39.008 40.8 90.208 39.392 112.992 43.808 82.016 7.808 348.192 10.208 348.192 10.208s215.2-0.384 358.4-10.592c20-2.4 63.616-2.592 102.592-43.392 30.784-31.008 40.8-101.6 40.8-101.6s10.208-82.784 10.208-165.792v-77.6c-0.192-82.816-10.4-165.792-10.4-165.792zM406.208 644.8v-287.808l276.608 144.416-276.608 143.392z" p-id="6531" fill="#4B5563"></path></svg>